<svg width="110" height="35" viewBox="0 0 110 35" fill="none" xmlns="http://www.w3.org/2000/svg">
<path d="M7.72301 22L5.22585 13.2727H7.24148L8.68608 19.3366H8.75852L10.3523 13.2727H12.0781L13.6676 19.3494H13.7443L15.1889 13.2727H17.2045L14.7074 22H12.9091L11.2472 16.294H11.179L9.52131 22H7.72301ZM18.8175 22H16.8402L19.853 13.2727H22.2308L25.2393 22H23.2621L21.076 15.267H21.0078L18.8175 22ZM18.6939 18.5696H23.3643V20.0099H18.6939V18.5696ZM33.5895 13.2727V22H31.9957L28.1989 16.5071H28.1349V22H26.2898V13.2727H27.9091L31.6761 18.7614H31.7528V13.2727H33.5895ZM38.2077 22H35.114V13.2727H38.2333C39.1112 13.2727 39.8668 13.4474 40.5004 13.7969C41.1339 14.1435 41.6211 14.642 41.962 15.2926C42.3058 15.9432 42.4776 16.7216 42.4776 17.6278C42.4776 18.5369 42.3058 19.3182 41.962 19.9716C41.6211 20.625 41.131 21.1264 40.4918 21.4759C39.8555 21.8253 39.0941 22 38.2077 22ZM36.9592 20.419H38.131C38.6765 20.419 39.1353 20.3224 39.5075 20.1293C39.8825 19.9332 40.1637 19.6307 40.3512 19.2216C40.5415 18.8097 40.6367 18.2784 40.6367 17.6278C40.6367 16.983 40.5415 16.456 40.3512 16.0469C40.1637 15.6378 39.8839 15.3366 39.5117 15.1435C39.1396 14.9503 38.6808 14.8537 38.1353 14.8537H36.9592V20.419ZM43.8445 22V13.2727H49.7251V14.794H45.6896V16.8736H49.4226V18.3949H45.6896V20.4787H49.7422V22H43.8445ZM51.1921 22V13.2727H54.6353C55.2944 13.2727 55.8569 13.3906 56.3228 13.6264C56.7915 13.8594 57.1481 14.1903 57.3924 14.6193C57.6396 15.0455 57.7631 15.5469 57.7631 16.1236C57.7631 16.7031 57.6381 17.2017 57.3881 17.6193C57.1381 18.0341 56.7759 18.3523 56.3015 18.5739C55.8299 18.7955 55.2589 18.9062 54.5884 18.9062H52.283V17.4233H54.2901C54.6424 17.4233 54.935 17.375 55.168 17.2784C55.4009 17.1818 55.5742 17.0369 55.6879 16.8438C55.8043 16.6506 55.8626 16.4105 55.8626 16.1236C55.8626 15.8338 55.8043 15.5895 55.6879 15.3906C55.5742 15.1918 55.3995 15.0412 55.1637 14.9389C54.9308 14.8338 54.6367 14.7812 54.2816 14.7812H53.0373V22H51.1921ZM55.9052 18.0284L58.0742 22H56.0373L53.9151 18.0284H55.9052Z" fill="black"/>
<rect x="64" y="5" width="41" height="25" rx="3" fill="#48BDFF"/>
<path d="M72.2585 22V13.2727H74.1037V16.8736H77.8494V13.2727H79.6903V22H77.8494V18.3949H74.1037V22H72.2585ZM86.6023 13.2727H88.4474V18.9403C88.4474 19.5767 88.2955 20.1335 87.9915 20.6108C87.6903 21.0881 87.2685 21.4602 86.7259 21.7273C86.1832 21.9915 85.5511 22.1236 84.8295 22.1236C84.1051 22.1236 83.4716 21.9915 82.929 21.7273C82.3864 21.4602 81.9645 21.0881 81.6634 20.6108C81.3622 20.1335 81.2116 19.5767 81.2116 18.9403V13.2727H83.0568V18.7827C83.0568 19.1151 83.1293 19.4105 83.2741 19.669C83.4219 19.9276 83.6293 20.1307 83.8963 20.2784C84.1634 20.4261 84.4744 20.5 84.8295 20.5C85.1875 20.5 85.4986 20.4261 85.7628 20.2784C86.0298 20.1307 86.2358 19.9276 86.3807 19.669C86.5284 19.4105 86.6023 19.1151 86.6023 18.7827V13.2727ZM89.9656 22V13.2727H93.4599C94.1019 13.2727 94.6374 13.3679 95.0664 13.5582C95.4954 13.7486 95.8178 14.0128 96.0337 14.3509C96.2496 14.6861 96.3576 15.0724 96.3576 15.5099C96.3576 15.8509 96.2894 16.1506 96.1531 16.4091C96.0167 16.6648 95.8292 16.875 95.5906 17.0398C95.3548 17.2017 95.0849 17.3168 94.7809 17.3849V17.4702C95.1133 17.4844 95.4244 17.5781 95.7141 17.7514C96.0067 17.9247 96.244 18.1676 96.4258 18.4801C96.6076 18.7898 96.6985 19.1591 96.6985 19.5881C96.6985 20.0511 96.5835 20.4645 96.3533 20.8281C96.1261 21.1889 95.7894 21.4744 95.3434 21.6847C94.8974 21.8949 94.3477 22 93.6942 22H89.9656ZM91.8107 20.4915H93.315C93.8292 20.4915 94.2042 20.3935 94.44 20.1974C94.6758 19.9986 94.7937 19.7344 94.7937 19.4048C94.7937 19.1634 94.7354 18.9503 94.619 18.7656C94.5025 18.581 94.3363 18.4361 94.1204 18.331C93.9073 18.2259 93.6531 18.1733 93.3576 18.1733H91.8107V20.4915ZM91.8107 16.9247H93.1786C93.4315 16.9247 93.6559 16.8807 93.8519 16.7926C94.0508 16.7017 94.207 16.5739 94.3207 16.4091C94.4371 16.2443 94.4954 16.0469 94.4954 15.8168C94.4954 15.5014 94.3832 15.2472 94.1587 15.054C93.9371 14.8608 93.6218 14.7642 93.2127 14.7642H91.8107V16.9247Z" fill="white"/>
</svg>
